<?xml version="1.0" standalone="no"?>
<!DOCTYPE svg PUBLIC "-//W3C//DTD SVG 20010904//EN"
 "http://www.w3.org/TR/2001/REC-SVG-20010904/DTD/svg10.dtd">
<svg version="1.0" xmlns="http://www.w3.org/2000/svg"
 width="500.000000pt" height="500.000000pt" viewBox="0 0 500.000000 500.000000"
 preserveAspectRatio="xMidYMid meet">

<g transform="translate(0.000000,500.000000) scale(0.100000,-0.100000)"
fill="#000000" stroke="none">
<path d="M0 2500 l0 -2500 2500 0 2500 0 0 2500 0 2500 -2500 0 -2500 0 0
-2500z m2605 1360 c223 -21 351 -65 568 -194 175 -103 273 -181 364 -284 107
-123 241 -342 210 -342 -8 0 -36 37 -62 83 -66 112 -140 209 -226 292 l-72 70
50 -65 c69 -89 133 -190 182 -287 46 -92 46 -93 28 -93 -7 0 -30 35 -51 78
-107 217 -307 449 -452 525 -95 49 -257 102 -374 123 -129 22 -369 15 -490
-15 -137 -34 -320 -109 -320 -131 0 -5 -53 -44 -117 -86 -146 -96 -316 -261
-391 -379 -73 -114 -75 -116 -91 -106 -11 7 -4 24 34 82 339 525 854 761 1430
654 65 -12 35 3 -51 25 -127 34 -347 38 -499 11 -400 -73 -708 -281 -910 -617
-22 -36 -35 -50 -35 -38 0 29 89 168 164 256 210 245 539 411 871 437 55 5
107 9 115 10 8 0 65 -4 125 -9z m-1063 -845 c101 -6 218 -33 218 -49 0 -10
-15 -9 -67 2 -38 8 -117 15 -178 16 l-110 1 -27 -155 c-39 -217 -65 -399 -83
-585 -19 -199 -23 -225 -36 -225 -7 0 -8 48 -4 143 14 302 -56 462 -271 618
-129 94 -117 116 97 179 57 16 146 36 198 45 52 8 96 17 99 19 2 3 23 3 46 1
22 -2 76 -7 118 -10z m1465 -47 c23 -43 30 -244 13 -375 -6 -52 -9 -97 -6
-100 2 -3 35 5 73 17 54 18 76 31 106 66 41 47 65 54 92 28 20 -21 13 -29 -14
-15 -17 9 -24 8 -42 -10 -22 -22 -53 -88 -45 -96 2 -3 12 7 20 21 9 14 23 37
31 51 20 32 35 24 35 -20 0 -34 21 -65 44 -65 20 0 86 71 86 92 0 27 18 58 34
58 11 0 12 -9 5 -41 -15 -64 -6 -66 31 -8 40 62 66 73 76 35 8 -32 11 -32 45
0 17 16 34 24 44 20 13 -5 15 -17 9 -80 -7 -83 -1 -126 21 -126 20 0 60 56 82
114 19 53 62 93 87 83 25 -10 19 -43 -14 -70 -16 -14 -35 -27 -41 -29 -7 -2
-9 -12 -5 -26 15 -45 113 -11 143 48 18 36 54 63 67 50 7 -7 4 -15 -12 -26
-31 -22 -27 -42 15 -79 l37 -32 60 43 c33 24 64 44 68 44 19 0 3 -18 -55 -60
-59 -44 -62 -47 -59 -83 7 -79 -72 -188 -116 -160 -38 23 -27 74 28 138 22 25
40 50 40 54 0 4 -16 22 -35 41 l-34 33 -40 -26 c-42 -28 -98 -36 -118 -16 -9
9 -19 2 -42 -24 -36 -40 -63 -50 -88 -32 -15 11 -18 28 -17 105 l1 91 -27 -26
c-32 -30 -46 -31 -60 -5 -14 27 -22 21 -59 -45 -21 -38 -37 -55 -51 -55 -11 0
-20 7 -20 16 0 11 -8 9 -34 -11 -47 -36 -85 -31 -108 13 l-16 33 -23 -40 c-24
-42 -52 -53 -63 -25 -4 9 -4 25 -1 35 8 25 0 24 -83 -7 l-70 -26 -37 -114
c-21 -65 -53 -139 -75 -173 -65 -100 -150 -140 -186 -86 -14 21 -14 32 -4 75
16 67 98 181 167 233 101 75 99 72 114 188 16 126 16 324 1 362 -14 33 -41 35
-69 5 -39 -43 -83 -124 -98 -184 -19 -74 -10 -114 31 -134 23 -11 25 -15 11
-18 -33 -7 -65 24 -72 70 -11 78 51 228 122 294 38 35 78 32 100 -8z m-1572
-235 c-18 -97 -25 -166 -24 -268 l0 -110 23 61 c58 156 106 175 106 43 0 -51
27 -32 81 55 49 81 85 118 76 78 -2 -9 3 -30 11 -46 16 -33 10 -98 -14 -134
-11 -17 -23 -22 -42 -20 -22 2 -28 9 -30 36 l-3 33 -30 -32 c-16 -17 -34 -29
-41 -27 -19 7 -38 49 -38 88 l-1 35 -21 -40 c-12 -22 -31 -71 -44 -110 -24
-76 -36 -88 -55 -54 -24 47 -10 343 21 425 15 39 33 30 25 -13z m481 -128 c8
-31 11 -31 45 1 18 17 34 24 45 20 15 -6 16 -17 10 -89 -5 -64 -3 -87 8 -102
14 -20 14 -20 36 0 12 11 38 47 57 80 19 33 44 70 56 83 24 25 59 29 77 7 17
-20 7 -29 -17 -17 -11 6 -24 8 -30 4 -18 -12 -53 -76 -53 -97 0 -13 11 -1 30
33 32 55 50 60 50 13 0 -16 9 -39 19 -52 19 -23 21 -23 48 -9 15 9 36 31 45
50 23 45 57 75 72 60 7 -7 4 -15 -12 -26 -31 -22 -27 -42 15 -79 l37 -32 60
43 c33 24 64 44 68 44 19 0 3 -18 -55 -60 -59 -44 -62 -47 -59 -83 7 -79 -72
-188 -116 -160 -38 23 -27 74 28 138 22 25 40 49 40 53 0 3 -14 21 -32 39
l-31 32 -29 -24 c-46 -39 -92 -32 -113 18 l-13 31 -21 -42 c-14 -28 -28 -42
-41 -42 -11 0 -20 5 -20 12 0 7 -15 -2 -32 -19 -31 -30 -47 -37 -75 -34 -22 2
-35 68 -28 139 l7 67 -30 -29 c-34 -32 -59 -30 -64 6 -3 20 -7 17 -35 -27 -53
-83 -58 -89 -76 -82 -33 13 -15 147 20 147 16 0 16 -4 2 -53 -6 -22 -8 -41 -6
-44 3 -2 21 20 41 51 39 61 62 71 72 31z m-577 -692 c100 -208 299 -450 454
-551 176 -115 426 -182 678 -182 225 0 486 89 666 226 136 104 352 350 437
496 29 49 43 64 53 54 8 -8 -67 -131 -130 -215 -139 -184 -305 -348 -423 -417
-24 -14 -44 -28 -44 -30 0 -6 91 35 157 73 207 115 394 304 504 508 23 41 45
75 50 75 13 0 12 -5 -17 -63 -70 -138 -189 -291 -306 -394 -260 -228 -593
-343 -996 -343 -399 0 -767 175 -993 473 -57 75 -152 254 -165 310 -6 25 -4
27 23 27 25 0 32 -7 52 -47z"/>
<path d="M1290 2974 c-163 -28 -365 -90 -365 -111 0 -6 37 -39 82 -72 138
-103 213 -207 244 -338 6 -26 13 -55 16 -63 3 -8 16 64 29 160 13 96 35 233
49 304 14 71 24 130 23 131 -2 1 -37 -4 -78 -11z"/>
<path d="M3795 2570 c-27 -30 -12 -34 15 -5 13 14 19 25 13 25 -5 0 -18 -9
-28 -20z"/>
<path d="M2882 2377 c-132 -106 -217 -297 -132 -297 26 0 85 54 115 104 43 74
97 236 78 236 -4 0 -32 -19 -61 -43z"/>
<path d="M3968 2368 c-37 -49 -52 -83 -44 -104 6 -15 9 -15 30 5 31 29 48 71
44 107 l-3 28 -27 -36z"/>
<path d="M1662 2501 c-22 -70 -9 -112 16 -56 14 30 16 95 4 95 -5 0 -14 -17
-20 -39z"/>
<path d="M2398 2368 c-37 -49 -52 -83 -44 -104 6 -15 9 -15 30 5 31 29 48 71
44 107 l-3 28 -27 -36z"/>
<path d="M1370 1776 c0 -10 90 -146 96 -146 3 0 3 3 0 8 -47 73 -96 144 -96
138z"/>
</g>
</svg>
